<?xml version="1.0" encoding="UTF-8"?>
<svg width="116.0000000000001" height="126" xmlns="http://www.w3.org/2000/svg" xmlns:svg="http://www.w3.org/2000/svg">
<!-- 
============================================================================
LICENCE BEERWARE (Revision 42):
kita59@gmail.com a cree ce fichier. Tant que vous conservez cet avertissement,
vous pouvez faire ce que vous voulez de ce truc. Si on se rencontre un jour et
que vous pensez que ce truc vaut le coup, vous pouvez me payer une biere en
retour. kita59
============================================================================
-->

 <g>
<!--  <title>BeerWare</title> -->
  <path fill="none" stroke="#000000" stroke-width="2" stroke-dasharray="null" d="m73.556641,40.558014c6.493683,-18.628357 31.935303,0 0,23.951324" id="svg_20"/>
  <rect fill="#e2ab04" stroke="#000000" stroke-width="3" x="37.750036" y="32.75" width="34.500003" height="50.250004" id="svg_3"/>
  <path fill="none" stroke="#000000" stroke-width="3" id="svg_5" d="m37.000031,32.375c0,-1.574997 0,-2.475006 0,-3.300003c0,-0.899994 0.18927,-1.598587 0.956451,-1.953369c0.667389,-0.308655 1.360626,-0.821457 2.015381,-1.177628c0.752228,-0.409195 1.678711,0.029678 2.483551,-0.326996c0.76593,-0.339417 1.181458,-1.132523 1.189148,-2.016998c0.007172,-0.824982 -0.004333,-1.800018 0,-2.700012c0.003937,-0.817032 0.591614,-1.27449 1.550415,-1.274994c0.885925,-0.000458 1.698334,-0.023361 2.583984,0c0.812897,0.021439 1.639557,0.33522 2.420563,0.916c0.601715,0.447464 0.929199,-0.249176 1.605042,-0.651505c0.763977,-0.454803 1.472809,-0.675186 2.113922,-1.227493c0.598022,-0.515167 1.260468,-0.952209 1.923096,-1.271378c0.786743,-0.378937 1.830322,-0.017181 2.642456,-0.015625c0.882599,0.001694 1.47525,0.523865 2.122314,1.069c0.644623,0.543121 1.141388,1.173187 2.012024,1.181c0.812103,0.007294 1.826569,-0.307297 2.65451,0.003372c0.687897,0.258118 1.366791,0.809982 2.015381,1.177628c0.685608,0.388611 1.413696,0.672363 2.049469,1.132004c0.710907,0.513931 1.275085,0.980698 1.631104,1.728989c0.363647,0.764282 0.376892,1.51619 0.745789,2.317383c0.354797,0.770599 0.7229,1.365631 0.7229,2.265625c0,0.899994 0,1.725006 0,2.699997l-0.003296,0.896622"/>
  <ellipse fill="none" stroke="#000000" stroke-width="3" cx="57.812539" cy="51.312503" id="svg_9" rx="45.000004" ry="45.750004"/>
  <line fill="none" stroke="#000000" stroke-width="2" stroke-dasharray="null" x1="43.750037" y1="38.750001" x2="43.750037" y2="73.250004" id="svg_12"/>
  <line fill="none" stroke="#000000" stroke-width="2" stroke-dasharray="null" x1="50.875037" y1="40.625001" x2="50.875037" y2="75.125004" id="svg_15"/>
  <line fill="none" stroke="#000000" stroke-width="2" stroke-dasharray="null" x1="57.812537" y1="41.937501" x2="57.812537" y2="76.437504" id="svg_16"/>
  <text fill="#000000" stroke="#000000" stroke-width="0" stroke-dasharray="null" x="72.361764" y="118.250007" id="svg_17" font-size="19" font-family="fantasy" text-anchor="middle" xml:space="preserve" transform="matrix(0.997513, 0, 0, 1, -14.2332, 0)" font-weight="bold">BEERWARE</text>
  <line fill="none" stroke="#000000" stroke-width="2" stroke-dasharray="null" x1="64.562537" y1="44.187501" x2="64.562537" y2="78.687504" id="svg_18"/>
 </g>
</svg>
